<?xml version="1.0" encoding="iso-8859-1"?>
<!-- Generator: Adobe Illustrator 19.0.0, SVG Export Plug-In . SVG Version: 6.00 Build 0)  -->
<svg version="1.1" id="Capa_1" xmlns="http://www.w3.org/2000/svg" xmlns:xlink="http://www.w3.org/1999/xlink" x="0px" y="0px"
	 viewBox="0 0 512 512" style="enable-background:new 0 0 512 512;" xml:space="preserve">
<path style="fill:#ABAAB0;" d="M7,207.5v-97.872C7,96.324,17.824,85.5,31.129,85.5h449.742C494.176,85.5,505,96.324,505,109.628
	V207.5H7z"/>
<g>
	<path style="fill:#929296;" d="M404.605,114.187v-8.873c0-4.142-3.357-7.5-7.5-7.5s-7.5,3.358-7.5,7.5v8.873
		c-6.538,2.885-11.106,9.415-11.106,17.02c0,10.276,8.33,18.606,18.606,18.606s18.606-8.33,18.606-18.606
		C415.711,123.602,411.142,117.072,404.605,114.187z"/>
	<path style="fill:#929296;" d="M77.211,85.5H31.129C17.824,85.5,7,96.324,7,109.628V207.5h46.083v-97.872
		C53.083,96.324,63.907,85.5,77.211,85.5z"/>
</g>
<path style="fill:#B7FF78;" d="M94.267,131.5c-4.559,0-8.267-3.708-8.267-8.267v-7.467c0-4.558,3.708-8.267,8.267-8.267h11.467
	c4.559,0,8.267,3.708,8.267,8.267v7.467c0,4.558-3.708,8.267-8.267,8.267H94.267z"/>
<path style="fill:#CFE5F6;" d="M442.418,189.5H310.582H202.418H70.582H7v212.872C7,415.676,17.824,426.5,31.129,426.5h449.742
	c13.305,0,24.129-10.824,24.129-24.128V189.5H442.418z"/>
<g>
	<path style="fill:#A5AEE5;" d="M253,373.814v-7c0-4.142-3.357-7.5-7.5-7.5H242v-7c0-4.142-3.357-7.5-7.5-7.5s-7.5,3.358-7.5,7.5v7
		h-3.5c-4.143,0-7.5,3.358-7.5,7.5v7c0,4.142,3.357,7.5,7.5,7.5h3.5v26c0,4.142,3.357,7.5,7.5,7.5s7.5-3.358,7.5-7.5v-26h3.5
		C249.643,381.314,253,377.956,253,373.814z"/>
	<path style="fill:#A5AEE5;" d="M311.5,359.314H308v-7c0-4.142-3.357-7.5-7.5-7.5s-7.5,3.358-7.5,7.5v7h-3.5
		c-4.143,0-7.5,3.358-7.5,7.5v7c0,4.142,3.357,7.5,7.5,7.5h3.5v26c0,4.142,3.357,7.5,7.5,7.5s7.5-3.358,7.5-7.5v-26h3.5
		c4.143,0,7.5-3.358,7.5-7.5v-7C319,362.672,315.643,359.314,311.5,359.314z"/>
	<path style="fill:#A5AEE5;" d="M278.5,382.314H275v-30c0-4.142-3.357-7.5-7.5-7.5s-7.5,3.358-7.5,7.5v30h-3.5
		c-4.143,0-7.5,3.358-7.5,7.5v7c0,4.142,3.357,7.5,7.5,7.5h3.5v3c0,4.142,3.357,7.5,7.5,7.5s7.5-3.358,7.5-7.5v-3h3.5
		c4.143,0,7.5-3.358,7.5-7.5v-7C286,385.672,282.643,382.314,278.5,382.314z"/>
	<path style="fill:#A5AEE5;" d="M391.659,369.659c-52.659,0-95.5-42.841-95.5-95.5s42.841-95.5,95.5-95.5s95.5,42.841,95.5,95.5
		S444.318,369.659,391.659,369.659z"/>
	<path style="fill:#A5AEE5;" d="M151.659,369.659c-52.659,0-95.5-42.841-95.5-95.5s42.841-95.5,95.5-95.5s95.5,42.841,95.5,95.5
		S204.318,369.659,151.659,369.659z"/>
	<path style="fill:#A5AEE5;" d="M53.272,402.372V189.5H7v212.872C7,415.676,17.739,426.5,30.94,426.5h46.272
		C64.011,426.5,53.272,415.676,53.272,402.372z"/>
</g>
<g>
	<path style="fill:#535257;" d="M37,392.176v-17.352c0-2.388,1.936-4.324,4.324-4.324h30.352c2.388,0,4.324,1.936,4.324,4.324
		v17.352c0,2.388-1.936,4.324-4.324,4.324H41.324C38.936,396.5,37,394.564,37,392.176z"/>
	<path style="fill:#535257;" d="M437,391.604v-16.207c0-2.704,2.192-4.896,4.896-4.896h29.207c2.704,0,4.896,2.192,4.896,4.896
		v16.207c0,2.704-2.192,4.896-4.896,4.896h-29.207C439.192,396.5,437,394.308,437,391.604z"/>
</g>
<g>
	<path style="fill:#3E3D42;" d="M55.5,392.176v-17.352c0-2.388,1.936-4.324,4.324-4.324h-18.5c-2.388,0-4.324,1.936-4.324,4.324
		v17.352c0,2.388,1.936,4.324,4.324,4.324h18.5C57.436,396.5,55.5,394.564,55.5,392.176z"/>
	<path style="fill:#3E3D42;" d="M455.5,391.604v-16.207c0-2.704,2.192-4.896,4.896-4.896h-18.5c-2.704,0-4.896,2.192-4.896,4.896
		v16.207c0,2.704,2.192,4.896,4.896,4.896h18.5C457.692,396.5,455.5,394.308,455.5,391.604z"/>
</g>
<path style="fill:#535257;" d="M376.5,354.5c-52.659,0-95.5-42.841-95.5-95.5s42.841-95.5,95.5-95.5S472,206.341,472,259
	S429.159,354.5,376.5,354.5z"/>
<path style="fill:#787680;" d="M407.282,271.313l-3.622,5.499c-2.881,4.374-6.815,8.033-11.376,10.581l-6.236,3.484l24.073,57.507
	c2.652-1.001,5.251-2.111,7.786-3.336c1.035-0.5,2.057-1.023,3.072-1.56c0.176-0.093,0.352-0.184,0.527-0.278
	c1.025-0.551,2.041-1.119,3.045-1.707c0.088-0.051,0.174-0.103,0.262-0.155c13.214-7.798,24.498-18.772,32.663-31.777
	c0.001-0.002,0.002-0.004,0.003-0.005c1.355-2.159,2.624-4.375,3.802-6.64c0.025-0.048,0.051-0.095,0.076-0.143l0.253-0.488
	c1.221-2.39,2.339-4.84,3.359-7.341L407.282,271.313z"/>
<path style="fill:#3E3D42;" d="M410.137,341.958c-51.702-1.534-93.132-44.672-92.632-96.394
	c0.291-30.177,14.654-57.047,36.825-74.359c2.211-1.727,0.52-5.27-2.192-4.553c-42.695,11.272-73.776,51.44-70.96,98.225
	c2.915,48.417,42.346,87.268,90.798,89.52c14.831,0.689,28.969-2.03,41.703-7.435c2.601-1.104,1.797-4.95-1.029-4.96
	C411.814,341.996,410.977,341.982,410.137,341.958z"/>
<path style="fill:#A3A2A8;" d="M376.5,292.5c-18.472,0-33.5-15.028-33.5-33.5s15.028-33.5,33.5-33.5S410,240.528,410,259
	S394.972,292.5,376.5,292.5z"/>
<path style="fill:#535257;" d="M136.5,354.5C83.841,354.5,41,311.659,41,259s42.841-95.5,95.5-95.5S232,206.341,232,259
	S189.159,354.5,136.5,354.5z"/>
<path style="fill:#57565C;" d="M413,342c-1.888,0-3.761-0.061-5.623-0.17l2.74,6.545c2.987-1.128,5.903-2.4,8.74-3.81
	c0.472-0.235,0.943-0.474,1.411-0.717c0.553-0.287,1.105-0.575,1.652-0.872c0.549-0.298,1.092-0.607,1.635-0.916
	c0.445-0.253,0.895-0.501,1.335-0.761c0.026-0.015,0.051-0.032,0.077-0.047C421.046,341.744,417.052,342,413,342z"/>
<path style="fill:#3E3D42;" d="M170.137,341.958c-51.702-1.534-93.132-44.672-92.632-96.394
	c0.285-29.557,14.069-55.941,35.467-73.28c2.493-2.02,0.445-6.018-2.64-5.137c-41.762,11.914-71.931,51.607-69.155,97.729
	c2.914,48.417,42.346,87.268,90.798,89.52c14.171,0.658,27.71-1.795,39.995-6.73c2.996-1.203,2.2-5.618-1.028-5.687
	C170.674,341.972,170.406,341.965,170.137,341.958z"/>
<path style="fill:#787680;" d="M42.318,240.899l2.414-8.359c5.424-18.783,16.363-35.271,31.637-47.679l6.823-5.543l34.811,52.202
	l-4.589,4.638c-3.093,3.125-5.484,6.776-7.109,10.851l-2.467,6.188L42.318,240.899z"/>
<path style="fill:#57565C;" d="M77.518,247.935c-0.007-0.478-0.018-0.956-0.018-1.435c0-19.287,5.758-37.25,15.631-52.279
	l-9.707-14.556c-2.934,1.969-5.753,4.096-8.445,6.369c-0.357,0.301-0.718,0.597-1.069,0.903
	c-9.486,8.249-17.337,18.332-22.986,29.696c-0.024,0.048-0.046,0.096-0.07,0.143c-0.556,1.124-1.086,2.262-1.598,3.41
	c-0.117,0.264-0.234,0.528-0.349,0.793c-0.407,0.933-0.794,1.877-1.172,2.825c-0.152,0.384-0.308,0.767-0.455,1.153
	c-0.328,0.855-0.635,1.72-0.938,2.587c-0.153,0.438-0.315,0.872-0.462,1.313c-0.395,1.184-0.767,2.379-1.117,3.583
	c-0.01,0.034-0.021,0.066-0.031,0.1l-0.095,0.329c-0.757,2.658-1.4,5.362-1.927,8.108L77.518,247.935z"/>
<path style="fill:#A3A2A8;" d="M136.5,292.5c-18.472,0-33.5-15.028-33.5-33.5s15.028-33.5,33.5-33.5S170,240.528,170,259
	S154.972,292.5,136.5,292.5z"/>
<g>
	<path style="fill:#2D2D30;" d="M162.5,329.84c-8.183,0-14.84-6.657-14.84-14.84s6.658-14.84,14.84-14.84s14.84,6.657,14.84,14.84
		S170.683,329.84,162.5,329.84z"/>
	<path style="fill:#2D2D30;" d="M350.5,329.5c-7.995,0-14.5-6.504-14.5-14.5s6.505-14.5,14.5-14.5S365,307.004,365,315
		S358.495,329.5,350.5,329.5z"/>
</g>
<g>
	<path style="fill:#3E3D42;" d="M122.405,206.354c29.03-7.771,58.969,9.523,66.74,38.551c0.897,3.352,3.929,5.563,7.24,5.563
		c0.643,0,1.295-0.083,1.944-0.257c4.001-1.071,6.377-5.183,5.306-9.184c-9.911-37.019-48.094-59.073-85.109-49.162
		c-4.001,1.071-6.377,5.183-5.306,9.184C114.292,205.05,118.409,207.426,122.405,206.354z"/>
	<path style="fill:#3E3D42;" d="M376.5,204.5c30.052,0,54.5,24.449,54.5,54.5c0,4.142,3.357,7.5,7.5,7.5s7.5-3.358,7.5-7.5
		c0-38.322-31.178-69.5-69.5-69.5c-4.143,0-7.5,3.358-7.5,7.5S372.357,204.5,376.5,204.5z"/>
</g>
<path style="fill:#B7FF78;" d="M222.315,167.5c-7.342,0-13.315-5.974-13.315-13.316v-32.368c0-7.342,5.974-13.316,13.315-13.316
	h68.369c7.342,0,13.315,5.974,13.315,13.316v32.368c0,7.342-5.974,13.316-13.315,13.316H222.315z"/>
<circle style="fill:#FF3F62;" cx="387.5" cy="127.89" r="18.606"/>
<path style="fill:#EA345C;" d="M384.894,127.894c0-7.408,4.34-13.786,10.606-16.779c-2.426-1.159-5.132-1.827-8-1.827
	c-10.276,0-18.606,8.33-18.606,18.606s8.33,18.606,18.606,18.606c2.868,0,5.574-0.668,8-1.827
	C389.234,141.679,384.894,135.301,384.894,127.894z"/>
<path style="fill:#FF728B;" d="M46.267,131.5c-4.559,0-8.267-3.708-8.267-8.267v-7.467c0-4.558,3.708-8.267,8.267-8.267h11.467
	c4.559,0,8.267,3.708,8.267,8.267v7.467c0,4.558-3.708,8.267-8.267,8.267H46.267z"/>
<path style="fill:#5BE894;" d="M222.315,167.5h68.369c3.91,0,7.42-1.704,9.858-4.397c-35.276-14.031-64.794-31.005-84.906-52.789
	c-3.961,2.31-6.637,6.594-6.637,11.501v32.368C209,161.526,214.974,167.5,222.315,167.5z"/>
<path d="M118.526,191.865c-4.001,1.071-6.377,5.183-5.306,9.184s5.188,6.377,9.185,5.305c29.03-7.771,58.969,9.523,66.74,38.551
	c0.897,3.352,3.929,5.563,7.24,5.563c0.643,0,1.295-0.083,1.944-0.257c4.001-1.071,6.377-5.183,5.306-9.184
	C193.725,204.008,155.542,181.953,118.526,191.865z"/>
<path d="M376.5,204.5c30.052,0,54.5,24.449,54.5,54.5c0,4.142,3.357,7.5,7.5,7.5s7.5-3.358,7.5-7.5c0-38.322-31.178-69.5-69.5-69.5
	c-4.143,0-7.5,3.358-7.5,7.5S372.357,204.5,376.5,204.5z"/>
<path d="M136.5,218.5c-22.332,0-40.5,18.168-40.5,40.5s18.168,40.5,40.5,40.5S177,281.332,177,259S158.832,218.5,136.5,218.5z
	 M136.5,284.5c-14.061,0-25.5-11.439-25.5-25.5s11.439-25.5,25.5-25.5S162,244.939,162,259S150.561,284.5,136.5,284.5z"/>
<path d="M417,259c0-22.332-18.168-40.5-40.5-40.5S336,236.668,336,259s18.168,40.5,40.5,40.5S417,281.332,417,259z M351,259
	c0-14.061,11.439-25.5,25.5-25.5S402,244.939,402,259s-11.439,25.5-25.5,25.5S351,273.061,351,259z"/>
<path d="M57.733,100.5H46.267C37.849,100.5,31,107.349,31,115.767v7.467c0,8.418,6.849,15.267,15.267,15.267h11.467
	c8.418,0,15.267-6.849,15.267-15.267v-7.467C73,107.349,66.151,100.5,57.733,100.5z M58,123.233c0,0.147-0.119,0.267-0.267,0.267
	H46.267c-0.147,0-0.267-0.12-0.267-0.267v-7.467c0-0.147,0.119-0.267,0.267-0.267h11.467c0.147,0,0.267,0.12,0.267,0.267L58,123.233
	L58,123.233z"/>
<path d="M105.733,100.5H94.267C85.849,100.5,79,107.349,79,115.767v7.467c0,8.418,6.849,15.267,15.267,15.267h11.467
	c8.418,0,15.267-6.849,15.267-15.267v-7.467C121,107.349,114.151,100.5,105.733,100.5z M106,123.233
	c0,0.147-0.119,0.267-0.267,0.267H94.267c-0.147,0-0.267-0.12-0.267-0.267v-7.467c0-0.147,0.119-0.267,0.267-0.267h11.467
	c0.147,0,0.267,0.12,0.267,0.267L106,123.233L106,123.233z"/>
<path d="M68.205,363.5h-23.41C36.637,363.5,30,370.137,30,378.295v10.409c0,8.158,6.637,14.795,14.795,14.795h23.41
	c8.158,0,14.795-6.637,14.795-14.795v-10.409C83,370.137,76.363,363.5,68.205,363.5z M68,388.5H45v-10h23V388.5z"/>
<path d="M468.205,363.5h-23.41c-8.158,0-14.795,6.637-14.795,14.795v10.409c0,8.158,6.637,14.795,14.795,14.795h23.41
	c8.158,0,14.795-6.637,14.795-14.795v-10.409C483,370.137,476.363,363.5,468.205,363.5z M468,388.5h-23v-10h23V388.5z"/>
<path d="M55,141.5h-6c-4.143,0-7.5,3.358-7.5,7.5s3.357,7.5,7.5,7.5h6c4.143,0,7.5-3.358,7.5-7.5S59.143,141.5,55,141.5z"/>
<path d="M103.5,141.5h-6c-4.143,0-7.5,3.358-7.5,7.5s3.357,7.5,7.5,7.5h6c4.143,0,7.5-3.358,7.5-7.5S107.643,141.5,103.5,141.5z"/>
<path d="M448.99,116.504c2.929-2.929,2.929-7.678,0-10.606c-2.93-2.929-7.678-2.929-10.607,0l-9.192,9.192
	c-2.929,2.929-2.929,7.678,0,10.606c1.465,1.464,3.385,2.197,5.304,2.197s3.839-0.732,5.304-2.197L448.99,116.504z"/>
<path d="M469.849,136.657l-9.192,9.192c-2.929,2.929-2.929,7.678,0,10.606c1.465,1.464,3.385,2.197,5.304,2.197
	s3.839-0.732,5.304-2.197l9.192-9.192c2.929-2.929,2.929-7.678,0-10.606C477.526,133.728,472.778,133.728,469.849,136.657z"/>
<path d="M471.617,114.383c-2.93-2.929-7.678-2.929-10.607,0l-22.627,22.627c-2.929,2.929-2.929,7.678,0,10.606
	c1.465,1.464,3.385,2.197,5.304,2.197s3.839-0.732,5.304-2.197l22.627-22.627C474.546,122.061,474.546,117.312,471.617,114.383z"/>
<circle cx="335.5" cy="119" r="9"/>
<circle cx="336" cy="146.5" r="9"/>
<circle cx="177.5" cy="119" r="9"/>
<circle cx="177" cy="146.5" r="9"/>
<path d="M395,110.004V102c0-4.142-3.357-7.5-7.5-7.5s-7.5,3.358-7.5,7.5v8.004c-2.939-2.228-7.142-2.01-9.823,0.671
	C365.549,115.303,363,121.456,363,128c0,6.544,2.549,12.697,7.176,17.324c4.777,4.777,11.05,7.165,17.324,7.165
	c6.273,0,12.548-2.389,17.323-7.164C409.451,140.697,412,134.544,412,128s-2.549-12.697-7.177-17.325
	C402.143,107.994,397.94,107.776,395,110.004z M394.217,134.718c-3.703,3.704-9.729,3.704-13.435,0
	c-1.794-1.794-2.782-4.18-2.782-6.717c0-2.141,0.711-4.17,2.009-5.83c0.091,4.063,3.406,7.33,7.491,7.33s7.4-3.268,7.491-7.33
	c1.297,1.661,2.009,3.689,2.009,5.83C397,130.538,396.012,132.923,394.217,134.718z"/>
<path d="M480.871,78.5H31.129C13.964,78.5,0,92.464,0,109.628v292.743C0,419.536,13.964,433.5,31.129,433.5h449.742
	c17.165,0,31.129-13.964,31.129-31.128V109.628C512,92.464,498.036,78.5,480.871,78.5z M497,402.372
	c0,8.907-7.221,16.128-16.128,16.128H31.129C22.221,418.5,15,411.279,15,402.371V197.5h39.552C41.654,214.643,34,235.944,34,259
	c0,20.396,5.991,39.417,16.302,55.402c2.572,3.987,8.157,4.605,11.512,1.25c0.036-0.036,0.071-0.071,0.107-0.107
	c2.474-2.474,2.874-6.334,0.978-9.275c-9.462-14.681-14.655-32.36-13.808-51.27c2.029-45.308,38.977-81.868,84.303-83.446
	c43.093-1.5,79.621,28.347,88.528,68.468l-51.588,58.242c-3.079-1.447-6.602-2.1-10.327-1.595
	c-8.452,1.147-15.15,8.104-15.927,16.598c-1.079,11.799,8.996,21.608,20.871,20.074c7.625-0.985,13.908-6.772,15.594-14.274
	c0.741-3.296,0.539-6.462-0.322-9.346l43.761-49.405c-0.707,47.642-39.675,86.184-87.483,86.184
	c-16.325,0-31.617-4.498-44.71-12.314c-2.93-1.75-6.667-1.311-9.08,1.102l-0.108,0.108c-3.412,3.412-2.722,9.137,1.418,11.616
	c15.36,9.196,33.313,14.489,52.48,14.489c56.519,0,102.5-45.981,102.5-102.5c0-4.914-0.355-9.746-1.027-14.477l12.002-13.55
	c1.215-1.371,1.886-3.14,1.886-4.972v-28.5h9.279V226c0,1.832,0.671,3.601,1.885,4.972l12.002,13.55
	C274.355,249.254,274,254.086,274,259c0,57.86,48.19,104.677,106.542,102.422c53.243-2.058,96.377-45.237,98.383-98.483
	c0.926-24.566-6.849-47.324-20.478-65.439H497V402.372z M218.448,197.5h18.412v25.656l-3.095,3.495
	C230.235,216.065,225.025,206.241,218.448,197.5z M166,315c0,1.93-1.57,3.5-3.5,3.5s-3.5-1.57-3.5-3.5s1.57-3.5,3.5-3.5
	S166,313.07,166,315z M350.5,333.5c10.201,0,18.5-8.299,18.5-18.5s-8.299-18.5-18.5-18.5c-2.802,0-5.451,0.644-7.833,1.764
	l-51.588-58.242c8.693-39.153,43.689-68.522,85.421-68.522c48.248,0,87.5,39.252,87.5,87.5s-39.252,87.5-87.5,87.5
	c-47.808,0-86.776-38.541-87.483-86.184l43.761,49.405c-0.5,1.674-0.777,3.444-0.777,5.279C332,325.201,340.299,333.5,350.5,333.5z
	 M347,315c0-1.93,1.57-3.5,3.5-3.5s3.5,1.57,3.5,3.5s-1.57,3.5-3.5,3.5S347,316.93,347,315z M279.235,226.65l-3.095-3.495V197.5
	h18.412C287.975,206.241,282.765,216.065,279.235,226.65z M222.315,159.5c-2.931,0-5.315-2.385-5.315-5.316v-32.368
	c0-2.931,2.385-5.316,5.315-5.316h68.369c2.931,0,5.315,2.385,5.315,5.316v32.368c0,2.931-2.385,5.316-5.315,5.316H222.315z
	 M261.14,174.5v8h-9.279v-8H261.14z M497,182.5h-52.36c-18.125-16.161-42.003-26-68.14-26s-50.015,9.839-68.14,26h-32.22v-8h14.545
	c11.202,0,20.315-9.114,20.315-20.316v-32.368c0-11.202-9.113-20.316-20.315-20.316h-68.369c-11.202,0-20.315,9.114-20.315,20.316
	v32.368c0,11.202,9.113,20.316,20.315,20.316h14.545v8H204.64c-18.125-16.161-42.003-26-68.14-26s-50.015,9.839-68.14,26H15v-72.872
	c0-8.893,7.235-16.128,16.129-16.128h449.742c8.894,0,16.129,7.235,16.129,16.128V182.5z"/>
<circle cx="136.5" cy="259" r="11.5"/>
<circle cx="376.5" cy="259" r="11.5"/>
<path d="M242,369v-7c0-4.142-3.357-7.5-7.5-7.5H231v-7c0-4.142-3.357-7.5-7.5-7.5s-7.5,3.358-7.5,7.5v7h-3.5
	c-4.143,0-7.5,3.358-7.5,7.5v7c0,4.142,3.357,7.5,7.5,7.5h3.5v26c0,4.142,3.357,7.5,7.5,7.5s7.5-3.358,7.5-7.5v-26h3.5
	C238.643,376.5,242,373.142,242,369z"/>
<path d="M300.5,354.5H297v-7c0-4.142-3.357-7.5-7.5-7.5s-7.5,3.358-7.5,7.5v7h-3.5c-4.143,0-7.5,3.358-7.5,7.5v7
	c0,4.142,3.357,7.5,7.5,7.5h3.5v26c0,4.142,3.357,7.5,7.5,7.5s7.5-3.358,7.5-7.5v-26h3.5c4.143,0,7.5-3.358,7.5-7.5v-7
	C308,357.858,304.643,354.5,300.5,354.5z"/>
<path d="M267.5,377.5H264v-30c0-4.142-3.357-7.5-7.5-7.5s-7.5,3.358-7.5,7.5v30h-3.5c-4.143,0-7.5,3.358-7.5,7.5v7
	c0,4.142,3.357,7.5,7.5,7.5h3.5v3c0,4.142,3.357,7.5,7.5,7.5s7.5-3.358,7.5-7.5v-3h3.5c4.143,0,7.5-3.358,7.5-7.5v-7
	C275,380.858,271.643,377.5,267.5,377.5z"/>
<g>
</g>
<g>
</g>
<g>
</g>
<g>
</g>
<g>
</g>
<g>
</g>
<g>
</g>
<g>
</g>
<g>
</g>
<g>
</g>
<g>
</g>
<g>
</g>
<g>
</g>
<g>
</g>
<g>
</g>
</svg>
